REM DIRINDEX 1\5,1\2\6,1\2\7,1\3\8,1\3\9,1\4\10,1\4\11,1\4\12
REM DIRNAME cjc026,folder01,folder02,folder03,folder04,folder05,folder06,folder07,folder08,folder09,folder10,folder11
TITLE ""
FILE "EJE_DB3000_5th_5C_13.mp3" MP3
  TRACK 01 AUDIO
    TITLE "0:"
    INDEX 01 00:00:00
  TRACK 02 AUDIO
    TITLE "10:cjc026_10611"
    INDEX 01 00:00:08
  TRACK 03 AUDIO
    TITLE "0:"
    INDEX 01 00:01:33
  TRACK 04 AUDIO
    TITLE "11:cjc026_10612"
    INDEX 01 00:01:70
  TRACK 05 AUDIO
    TITLE "0:"
    INDEX 01 00:03:61
  TRACK 06 AUDIO
    TITLE "12:cjc026_10613"
    INDEX 01 00:04:21
  TRACK 07 AUDIO
    TITLE "0:"
    INDEX 01 00:05:46
  TRACK 08 AUDIO
    TITLE "10:cjc026_10614"
    INDEX 01 00:06:11
  TRACK 09 AUDIO
    TITLE "0:"
    INDEX 01 00:07:42
  TRACK 10 AUDIO
    TITLE "11:cjc026_10615"
    INDEX 01 00:08:02
  TRACK 11 AUDIO
    TITLE "0:"
    INDEX 01 00:09:16
  TRACK 12 AUDIO
    TITLE "12:cjc026_10616"
    INDEX 01 00:09:54
  TRACK 13 AUDIO
    TITLE "0:"
    INDEX 01 00:11:09
  TRACK 14 AUDIO
    TITLE "10:cjc026_10617"
    INDEX 01 00:11:44
  TRACK 15 AUDIO
    TITLE "0:"
    INDEX 01 00:12:72
  TRACK 16 AUDIO
    TITLE "11:cjc026_10618"
    INDEX 01 00:13:32
  TRACK 17 AUDIO
    TITLE "0:"
    INDEX 01 00:15:03
  TRACK 18 AUDIO
    TITLE "12:cjc026_10619"
    INDEX 01 00:15:38
  TRACK 19 AUDIO
    TITLE "0:"
    INDEX 01 00:16:66
  TRACK 20 AUDIO
    TITLE "10:cjc026_10620"
    INDEX 01 00:17:29
  TRACK 21 AUDIO
    TITLE "0:"
    INDEX 01 00:18:56
  TRACK 22 AUDIO
    TITLE "11:cjc026_10621"
    INDEX 01 00:19:19
  TRACK 23 AUDIO
    TITLE "0:"
    INDEX 01 00:21:01
  TRACK 24 AUDIO
    TITLE "12:cjc026_10622"
    INDEX 01 00:21:39
  TRACK 25 AUDIO
    TITLE "0:"
    INDEX 01 00:22:67
  TRACK 26 AUDIO
    TITLE "10:cjc026_10623"
    INDEX 01 00:23:27
  TRACK 27 AUDIO
    TITLE "0:"
    INDEX 01 00:24:52
  TRACK 28 AUDIO
    TITLE "11:cjc026_10624"
    INDEX 01 00:25:15
  TRACK 29 AUDIO
    TITLE "0:"
    INDEX 01 00:26:64
  TRACK 30 AUDIO
    TITLE "12:cjc026_10625"
    INDEX 01 00:27:27
  TRACK 31 AUDIO
    TITLE "0:"
    INDEX 01 00:28:51
  TRACK 32 AUDIO
    TITLE "10:cjc026_10626"
    INDEX 01 00:29:14
  TRACK 33 AUDIO
    TITLE "0:"
    INDEX 01 00:30:39
  TRACK 34 AUDIO
    TITLE "11:cjc026_10627"
    INDEX 01 00:31:02
  TRACK 35 AUDIO
    TITLE "0:"
    INDEX 01 00:32:16
  TRACK 36 AUDIO
    TITLE "12:cjc026_10628"
    INDEX 01 00:32:54
  TRACK 37 AUDIO
    TITLE "0:"
    INDEX 01 00:34:04
  TRACK 38 AUDIO
    TITLE "10:cjc026_10629"
    INDEX 01 00:34:42
  TRACK 39 AUDIO
    TITLE "0:"
    INDEX 01 00:35:61
  TRACK 40 AUDIO
    TITLE "11:cjc026_10630"
    INDEX 01 00:36:27
  TRACK 41 AUDIO
    TITLE "0:"
    INDEX 01 00:38:01
  TRACK 42 AUDIO
    TITLE "12:cjc026_10631"
    INDEX 01 00:38:39
  TRACK 43 AUDIO
    TITLE "0:"
    INDEX 01 00:39:58
  TRACK 44 AUDIO
    TITLE "10:cjc026_10632"
    INDEX 01 00:40:21
  TRACK 45 AUDIO
    TITLE "0:"
    INDEX 01 00:41:48
  TRACK 46 AUDIO
    TITLE "11:cjc026_10633"
    INDEX 01 00:42:09
  TRACK 47 AUDIO
    TITLE "0:"
    INDEX 01 00:43:60
  TRACK 48 AUDIO
    TITLE "12:cjc026_10634"
    INDEX 01 00:44:23
  TRACK 49 AUDIO
    TITLE "0:"
    INDEX 01 00:45:51
  TRACK 50 AUDIO
    TITLE "10:cjc026_10635"
    INDEX 01 00:46:14
  TRACK 51 AUDIO
    TITLE "0:"
    INDEX 01 00:47:33
  TRACK 52 AUDIO
    TITLE "11:cjc026_10636"
    INDEX 01 00:47:71
  TRACK 53 AUDIO
    TITLE "0:"
    INDEX 01 00:49:18
  TRACK 54 AUDIO
    TITLE "12:cjc026_10637"
    INDEX 01 00:49:53
  TRACK 55 AUDIO
    TITLE "0:"
    INDEX 01 00:51:00
  TRACK 56 AUDIO
    TITLE "10:cjc026_10638"
    INDEX 01 00:51:36
  TRACK 57 AUDIO
    TITLE "0:"
    INDEX 01 00:53:10
  TRACK 58 AUDIO
    TITLE "11:cjc026_10639"
    INDEX 01 00:53:42
  TRACK 59 AUDIO
    TITLE "0:"
    INDEX 01 00:54:67
  TRACK 60 AUDIO
    TITLE "12:cjc026_10640"
    INDEX 01 00:55:27
  TRACK 61 AUDIO
    TITLE "0:"
    INDEX 01 00:56:74
  TRACK 62 AUDIO
    TITLE "10:cjc026_10641"
    INDEX 01 00:57:34
  TRACK 63 AUDIO
    TITLE "0:"
    INDEX 01 00:58:69
  TRACK 64 AUDIO
    TITLE "11:cjc026_10642"
    INDEX 01 00:59:32
  TRACK 65 AUDIO
    TITLE "0:"
    INDEX 01 01:00:63
  TRACK 66 AUDIO
    TITLE "12:cjc026_10643"
    INDEX 01 01:01:28
  TRACK 67 AUDIO
    TITLE "0:"
    INDEX 01 01:02:64
  TRACK 68 AUDIO
    TITLE "10:cjc026_10644"
    INDEX 01 01:03:27
  TRACK 69 AUDIO
    TITLE "0:"
    INDEX 01 01:04:54
  TRACK 70 AUDIO
    TITLE "11:cjc026_10645"
    INDEX 01 01:05:14
  TRACK 71 AUDIO
    TITLE "0:"
    INDEX 01 01:06:61
  TRACK 72 AUDIO
    TITLE "12:cjc026_10646"
    INDEX 01 01:07:23
  TRACK 73 AUDIO
    TITLE "0:"
    INDEX 01 01:08:48
  TRACK 74 AUDIO
    TITLE "10:cjc026_10647"
    INDEX 01 01:09:11
  TRACK 75 AUDIO
    TITLE "0:"
    INDEX 01 01:10:25
  TRACK 76 AUDIO
    TITLE "11:cjc026_10648"
    INDEX 01 01:10:63
  TRACK 77 AUDIO
    TITLE "0:"
    INDEX 01 01:12:37
  TRACK 78 AUDIO
    TITLE "12:cjc026_10649"
    INDEX 01 01:12:72
  TRACK 79 AUDIO
    TITLE "0:"
    INDEX 01 01:14:12
  TRACK 80 AUDIO
    TITLE "10:cjc026_10650"
    INDEX 01 01:14:49
  TRACK 81 AUDIO
    TITLE "0:"
    INDEX 01 01:16:10
  TRACK 82 AUDIO
    TITLE "11:cjc026_10651"
    INDEX 01 01:16:42
  TRACK 83 AUDIO
    TITLE "0:"
    INDEX 01 01:18:30
  TRACK 84 AUDIO
    TITLE "12:cjc026_10652"
    INDEX 01 01:18:65
  TRACK 85 AUDIO
    TITLE "0:"
    INDEX 01 01:20:26
